<mxfile host="Electron" agent="Mozilla/5.0 (Macintosh; Intel Mac OS X 10_15_7) AppleWebKit/537.36 (KHTML, like Gecko) draw.io/27.0.5 Chrome/134.0.6998.205 Electron/35.3.0 Safari/537.36" version="27.0.5">
  <diagram name="第 1 页" id="lOS7A2R-BPaBN8YwcZdz">
    <mxGraphModel dx="3582" dy="2330" grid="1" gridSize="10" guides="1" tooltips="1" connect="1" arrows="1" fold="1" page="1" pageScale="1" pageWidth="827" pageHeight="1169" math="0" shadow="0">
      <root>
        <mxCell id="0" />
        <mxCell id="1" parent="0" />
        <mxCell id="5lY7CkNXTAZODIK3GsJZ-25" value="A2A Server/Remote Agent" style="rounded=0;whiteSpace=wrap;html=1;verticalAlign=top;fontSize=14;fontFamily=Lucida Console;fillColor=#d5e8d4;strokeColor=#82b366;" parent="1" vertex="1">
          <mxGeometry x="-465" y="-440" width="190" height="120" as="geometry" />
        </mxCell>
        <mxCell id="5lY7CkNXTAZODIK3GsJZ-37" style="edgeStyle=orthogonalEdgeStyle;rounded=0;orthogonalLoop=1;jettySize=auto;html=1;exitX=1;exitY=0.5;exitDx=0;exitDy=0;entryX=0;entryY=0.5;entryDx=0;entryDy=0;fontFamily=Lucida Console;" parent="1" source="5lY7CkNXTAZODIK3GsJZ-1" target="5lY7CkNXTAZODIK3GsJZ-31" edge="1">
          <mxGeometry relative="1" as="geometry" />
        </mxCell>
        <mxCell id="5lY7CkNXTAZODIK3GsJZ-38" style="edgeStyle=orthogonalEdgeStyle;rounded=0;orthogonalLoop=1;jettySize=auto;html=1;exitX=1;exitY=0.5;exitDx=0;exitDy=0;entryX=0;entryY=0.5;entryDx=0;entryDy=0;fontFamily=Lucida Console;" parent="1" source="5lY7CkNXTAZODIK3GsJZ-1" target="5lY7CkNXTAZODIK3GsJZ-12" edge="1">
          <mxGeometry relative="1" as="geometry" />
        </mxCell>
        <mxCell id="5lY7CkNXTAZODIK3GsJZ-39" style="edgeStyle=orthogonalEdgeStyle;rounded=0;orthogonalLoop=1;jettySize=auto;html=1;exitX=1;exitY=0.5;exitDx=0;exitDy=0;startArrow=classic;startFill=1;fontFamily=Lucida Console;" parent="1" source="5lY7CkNXTAZODIK3GsJZ-1" target="5lY7CkNXTAZODIK3GsJZ-8" edge="1">
          <mxGeometry relative="1" as="geometry" />
        </mxCell>
        <mxCell id="5lY7CkNXTAZODIK3GsJZ-40" style="edgeStyle=orthogonalEdgeStyle;rounded=0;orthogonalLoop=1;jettySize=auto;html=1;exitX=1;exitY=0.5;exitDx=0;exitDy=0;entryX=0;entryY=0.5;entryDx=0;entryDy=0;fontFamily=Lucida Console;" parent="1" source="5lY7CkNXTAZODIK3GsJZ-1" target="5lY7CkNXTAZODIK3GsJZ-21" edge="1">
          <mxGeometry relative="1" as="geometry" />
        </mxCell>
        <mxCell id="5lY7CkNXTAZODIK3GsJZ-41" style="edgeStyle=orthogonalEdgeStyle;rounded=0;orthogonalLoop=1;jettySize=auto;html=1;exitX=1;exitY=0.5;exitDx=0;exitDy=0;entryX=0;entryY=0.5;entryDx=0;entryDy=0;fontFamily=Lucida Console;" parent="1" source="5lY7CkNXTAZODIK3GsJZ-1" target="5lY7CkNXTAZODIK3GsJZ-25" edge="1">
          <mxGeometry relative="1" as="geometry" />
        </mxCell>
        <mxCell id="5lY7CkNXTAZODIK3GsJZ-1" value="A2A Client/Client Agent" style="rounded=0;whiteSpace=wrap;html=1;verticalAlign=top;fontSize=14;fontFamily=Lucida Console;fillColor=#d5e8d4;strokeColor=#82b366;" parent="1" vertex="1">
          <mxGeometry x="-800" y="-795" width="190" height="120" as="geometry" />
        </mxCell>
        <mxCell id="5lY7CkNXTAZODIK3GsJZ-5" value="ollama" style="rounded=1;whiteSpace=wrap;html=1;fontSize=14;fontFamily=Lucida Console;fillColor=#f8cecc;strokeColor=#b85450;" parent="1" vertex="1">
          <mxGeometry x="-760" y="-720" width="110" height="35" as="geometry" />
        </mxCell>
        <mxCell id="5lY7CkNXTAZODIK3GsJZ-6" value="Google ADK" style="rounded=0;whiteSpace=wrap;html=1;fontSize=14;fontFamily=Lucida Console;fillColor=#dae8fc;strokeColor=#6c8ebf;" parent="1" vertex="1">
          <mxGeometry x="-760" y="-762.5" width="110" height="35" as="geometry" />
        </mxCell>
        <mxCell id="5lY7CkNXTAZODIK3GsJZ-7" value="Host Agent" style="rounded=0;whiteSpace=wrap;html=1;strokeColor=none;fillColor=none;fontSize=15;fontFamily=Lucida Console;fontStyle=1;fontColor=#0066CC;" parent="1" vertex="1">
          <mxGeometry x="-760" y="-665" width="120" height="30" as="geometry" />
        </mxCell>
        <mxCell id="5lY7CkNXTAZODIK3GsJZ-8" value="A2A Server/Remote Agent" style="rounded=0;whiteSpace=wrap;html=1;verticalAlign=top;fontSize=14;fontFamily=Lucida Console;fillColor=#d5e8d4;strokeColor=#82b366;" parent="1" vertex="1">
          <mxGeometry x="-465" y="-795" width="190" height="120" as="geometry" />
        </mxCell>
        <mxCell id="5lY7CkNXTAZODIK3GsJZ-9" value="ollama" style="rounded=1;whiteSpace=wrap;html=1;fontSize=14;fontFamily=Lucida Console;fillColor=#f8cecc;strokeColor=#b85450;" parent="1" vertex="1">
          <mxGeometry x="-425" y="-722.5" width="110" height="35" as="geometry" />
        </mxCell>
        <mxCell id="5lY7CkNXTAZODIK3GsJZ-10" value="Google ADK" style="rounded=0;whiteSpace=wrap;html=1;fontSize=14;fontFamily=Lucida Console;fillColor=#dae8fc;strokeColor=#6c8ebf;" parent="1" vertex="1">
          <mxGeometry x="-425" y="-763.5" width="110" height="35" as="geometry" />
        </mxCell>
        <mxCell id="5lY7CkNXTAZODIK3GsJZ-11" value="Reimbursement Agent" style="rounded=0;whiteSpace=wrap;strokeColor=none;fillColor=none;align=center;fontSize=15;fontFamily=Lucida Console;fontStyle=1;fontColor=#0066CC;flipV=0;" parent="1" vertex="1">
          <mxGeometry x="-460" y="-675" width="180" height="30" as="geometry" />
        </mxCell>
        <mxCell id="5lY7CkNXTAZODIK3GsJZ-12" value="A2A Server/Remote Agent" style="rounded=0;whiteSpace=wrap;html=1;verticalAlign=top;fontSize=14;fontFamily=Lucida Console;fillColor=#d5e8d4;strokeColor=#82b366;" parent="1" vertex="1">
          <mxGeometry x="-465" y="-972" width="190" height="120" as="geometry" />
        </mxCell>
        <mxCell id="5lY7CkNXTAZODIK3GsJZ-13" value="lm studio" style="rounded=1;whiteSpace=wrap;html=1;fontSize=14;fontFamily=Lucida Console;fillColor=#f8cecc;strokeColor=#b85450;" parent="1" vertex="1">
          <mxGeometry x="-453" y="-894" width="110" height="35" as="geometry" />
        </mxCell>
        <mxCell id="5lY7CkNXTAZODIK3GsJZ-14" value="AG2(AutoGen)" style="rounded=0;whiteSpace=wrap;html=1;fontSize=14;fontFamily=Lucida Console;fillColor=#dae8fc;strokeColor=#6c8ebf;" parent="1" vertex="1">
          <mxGeometry x="-453" y="-939" width="110" height="35" as="geometry" />
        </mxCell>
        <mxCell id="5lY7CkNXTAZODIK3GsJZ-15" value="YouTube Captions Agent" style="rounded=0;whiteSpace=wrap;strokeColor=none;fillColor=none;align=center;fontSize=15;fontFamily=Lucida Console;fontStyle=1;fontColor=#0066CC;flipV=0;" parent="1" vertex="1">
          <mxGeometry x="-481.25" y="-852" width="222.5" height="30" as="geometry" />
        </mxCell>
        <mxCell id="5lY7CkNXTAZODIK3GsJZ-19" style="edgeStyle=orthogonalEdgeStyle;rounded=0;orthogonalLoop=1;jettySize=auto;html=1;exitX=0.5;exitY=0;exitDx=0;exitDy=0;entryX=0.5;entryY=1;entryDx=0;entryDy=0;fontSize=14;fontFamily=Lucida Console;" parent="1" source="5lY7CkNXTAZODIK3GsJZ-16" target="5lY7CkNXTAZODIK3GsJZ-17" edge="1">
          <mxGeometry relative="1" as="geometry" />
        </mxCell>
        <mxCell id="5lY7CkNXTAZODIK3GsJZ-16" value="MCP Client" style="rounded=0;whiteSpace=wrap;html=1;direction=south;fontSize=12;fontFamily=Lucida Console;fillColor=#e1d5e7;strokeColor=#9673a6;" parent="1" vertex="1">
          <mxGeometry x="-337.5" y="-940" width="50" height="80" as="geometry" />
        </mxCell>
        <mxCell id="5lY7CkNXTAZODIK3GsJZ-20" style="edgeStyle=orthogonalEdgeStyle;rounded=0;orthogonalLoop=1;jettySize=auto;html=1;exitX=0.5;exitY=0;exitDx=0;exitDy=0;fontSize=14;fontFamily=Lucida Console;" parent="1" source="5lY7CkNXTAZODIK3GsJZ-17" target="5lY7CkNXTAZODIK3GsJZ-18" edge="1">
          <mxGeometry relative="1" as="geometry" />
        </mxCell>
        <mxCell id="5lY7CkNXTAZODIK3GsJZ-17" value="MCP Server" style="rounded=0;whiteSpace=wrap;html=1;direction=south;fontSize=12;fontFamily=Lucida Console;fillColor=#e1d5e7;strokeColor=#9673a6;" parent="1" vertex="1">
          <mxGeometry x="-241" y="-940" width="50" height="80" as="geometry" />
        </mxCell>
        <mxCell id="5lY7CkNXTAZODIK3GsJZ-18" value="Youtube.com" style="rounded=0;whiteSpace=wrap;html=1;direction=west;fontSize=14;fontFamily=Lucida Console;fillColor=#f5f5f5;fontColor=#333333;strokeColor=#666666;" parent="1" vertex="1">
          <mxGeometry x="-166" y="-940" width="130" height="80" as="geometry" />
        </mxCell>
        <mxCell id="5lY7CkNXTAZODIK3GsJZ-21" value="A2A Server/Remote Agent" style="rounded=0;whiteSpace=wrap;html=1;verticalAlign=top;fontSize=14;fontFamily=Lucida Console;fillColor=#d5e8d4;strokeColor=#82b366;" parent="1" vertex="1">
          <mxGeometry x="-465" y="-620" width="190" height="120" as="geometry" />
        </mxCell>
        <mxCell id="5lY7CkNXTAZODIK3GsJZ-22" value="lm studio" style="rounded=1;whiteSpace=wrap;html=1;fontSize=14;fontFamily=Lucida Console;fillColor=#f8cecc;strokeColor=#b85450;" parent="1" vertex="1">
          <mxGeometry x="-425" y="-547" width="110" height="35" as="geometry" />
        </mxCell>
        <mxCell id="5lY7CkNXTAZODIK3GsJZ-23" value="LlamaIndex" style="rounded=0;whiteSpace=wrap;html=1;fontSize=14;fontFamily=Lucida Console;fillColor=#dae8fc;strokeColor=#6c8ebf;" parent="1" vertex="1">
          <mxGeometry x="-425" y="-410" width="110" height="35" as="geometry" />
        </mxCell>
        <mxCell id="5lY7CkNXTAZODIK3GsJZ-26" value="lm studio" style="rounded=1;whiteSpace=wrap;html=1;fontSize=14;fontFamily=Lucida Console;fillColor=#f8cecc;strokeColor=#b85450;" parent="1" vertex="1">
          <mxGeometry x="-425" y="-364" width="110" height="35" as="geometry" />
        </mxCell>
        <mxCell id="5lY7CkNXTAZODIK3GsJZ-27" value="Semantic Kernel" style="rounded=0;whiteSpace=wrap;html=1;fontSize=14;fontFamily=Lucida Console;fillColor=#dae8fc;strokeColor=#6c8ebf;" parent="1" vertex="1">
          <mxGeometry x="-425" y="-593" width="110" height="35" as="geometry" />
        </mxCell>
        <mxCell id="5lY7CkNXTAZODIK3GsJZ-29" value="Currency Agent" style="text;align=center;verticalAlign=middle;resizable=0;points=[];autosize=1;strokeColor=none;fillColor=none;fontSize=15;fontFamily=Lucida Console;fontStyle=1;fontColor=#0066CC;flipV=0;" parent="1" vertex="1">
          <mxGeometry x="-445" y="-1020" width="150" height="30" as="geometry" />
        </mxCell>
        <mxCell id="4CvtYM4crfJGOu6EVNtm-3" style="edgeStyle=orthogonalEdgeStyle;rounded=0;orthogonalLoop=1;jettySize=auto;html=1;exitX=1;exitY=0.5;exitDx=0;exitDy=0;entryX=1;entryY=0.5;entryDx=0;entryDy=0;" parent="1" source="5lY7CkNXTAZODIK3GsJZ-31" target="4CvtYM4crfJGOu6EVNtm-2" edge="1">
          <mxGeometry relative="1" as="geometry" />
        </mxCell>
        <mxCell id="5lY7CkNXTAZODIK3GsJZ-31" value="A2A Server/Remote Agent" style="rounded=0;whiteSpace=wrap;html=1;verticalAlign=top;fontSize=14;fontFamily=Lucida Console;fillColor=#d5e8d4;strokeColor=#82b366;" parent="1" vertex="1">
          <mxGeometry x="-465" y="-1140" width="190" height="120" as="geometry" />
        </mxCell>
        <mxCell id="5lY7CkNXTAZODIK3GsJZ-32" value="ollama" style="rounded=1;whiteSpace=wrap;html=1;fontSize=14;fontFamily=Lucida Console;fillColor=#f8cecc;strokeColor=#b85450;" parent="1" vertex="1">
          <mxGeometry x="-425" y="-1064" width="110" height="35" as="geometry" />
        </mxCell>
        <mxCell id="5lY7CkNXTAZODIK3GsJZ-33" value="LangGraph" style="rounded=0;whiteSpace=wrap;fontSize=14;fontFamily=Lucida Console;fillColor=#dae8fc;strokeColor=#6c8ebf;html=1;" parent="1" vertex="1">
          <mxGeometry x="-425" y="-1107.5" width="110" height="35" as="geometry" />
        </mxCell>
        <mxCell id="5lY7CkNXTAZODIK3GsJZ-35" value="Travel Agent" style="text;whiteSpace=wrap;align=center;fontSize=15;fontFamily=Lucida Console;fontStyle=1;fontColor=#0066CC;flipV=0;" parent="1" vertex="1">
          <mxGeometry x="-450" y="-500" width="160" height="40" as="geometry" />
        </mxCell>
        <mxCell id="5lY7CkNXTAZODIK3GsJZ-36" value="File Chat Agent" style="text;whiteSpace=wrap;align=center;fontSize=15;fontFamily=Lucida Console;fontStyle=1;fontColor=#0066CC;flipV=0;" parent="1" vertex="1">
          <mxGeometry x="-445" y="-320" width="150" height="40" as="geometry" />
        </mxCell>
        <mxCell id="ADdwPhCtNygSkYvrjW8B-2" value="" style="shape=image;verticalLabelPosition=bottom;labelBackgroundColor=default;verticalAlign=top;aspect=fixed;imageAspect=0;editableCssRules=.*;image=data:image/svg+xml,PHN2ZyB4bWxucz0iaHR0cDovL3d3dy53My5vcmcvMjAwMC9zdmciIGZpbGw9Im5vbmUiIHZpZXdCb3g9IjMgOSAzMCAxOC41IiBoZWlnaHQ9IjE4LjUiIHdpZHRoPSIzMCI+JiN4YTs8cGF0aCBmaWxsPSJibGFjayIgZD0iTTguNyAxNC43MjVDOC41MTY2NyAxNC45MDgzIDguMjgzMzMgMTUgOCAxNUM3LjcxNjY3IDE1IDcuNDc1IDE0LjkwODMgNy4yNzUgMTQuNzI1QzcuMDkxNjcgMTQuNTI1IDcgMTQuMjgzMyA3IDE0QzcgMTMuNzE2NyA3LjA5MTY3IDEzLjQ4MzMgNy4yNzUgMTMuM0M3LjQ3NSAxMy4xIDcuNzE2NjcgMTMgOCAxM0M4LjI4MzMzIDEzIDguNTE2NjcgMTMuMSA4LjcgMTMuM0M4LjkgMTMuNDgzMyA5IDEzLjcxNjcgOSAxNEM5IDE0LjI4MzMgOC45IDE0LjUyNSA4LjcgMTQuNzI1WiIvPiYjeGE7PHBhdGggZmlsbD0iYmxhY2siIGQ9Ik0xNC43IDE0LjcyNUMxNC41MTY3IDE0LjkwODMgMTQuMjgzMyAxNSAxNCAxNUMxMy43MTY3IDE1IDEzLjQ3NSAxNC45MDgzIDEzLjI3NSAxNC43MjVDMTMuMDkxNyAxNC41MjUgMTMgMTQuMjgzMyAxMyAxNEMxMyAxMy43MTY3IDEzLjA5MTcgMTMuNDgzMyAxMy4yNzUgMTMuM0MxMy40NzUgMTMuMSAxMy43MTY3IDEzIDE0IDEzQzE0LjI4MzMgMTMgMTQuNTE2NyAxMy4xIDE0LjcgMTMuM0MxNC45IDEzLjQ4MzMgMTUgMTMuNzE2NyAxNSAxNEMxNSAxNC4yODMzIDE0LjkgMTQuNTI1IDE0LjcgMTQuNzI1WiIvPiYjeGE7PHBhdGggZmlsbD0iYmxhY2siIGQ9Ik0yMi43IDE0LjcyNUMyMi41MTY3IDE0LjkwODMgMjIuMjgzMyAxNSAyMiAxNUMyMS43MTY3IDE1IDIxLjQ3NSAxNC45MDgzIDIxLjI3NSAxNC43MjVDMjEuMDkxNyAxNC41MjUgMjEgMTQuMjgzMyAyMSAxNEMyMSAxMy43MTY3IDIxLjA5MTcgMTMuNDgzMyAyMS4yNzUgMTMuM0MyMS40NzUgMTMuMSAyMS43MTY3IDEzIDIyIDEzQzIyLjI4MzMgMTMgMjIuNTE2NyAxMy4xIDIyLjcgMTMuM0MyMi45IDEzLjQ4MzMgMjMgMTMuNzE2NyAyMyAxNEMyMyAxNC4yODMzIDIyLjkgMTQuNTI1IDIyLjcgMTQuNzI1WiIvPiYjeGE7PHBhdGggZmlsbD0iYmxhY2siIGQ9Ik0yOC43IDE0LjcyNUMyOC41MTY3IDE0LjkwODMgMjguMjgzMyAxNSAyOCAxNUMyNy43MTY3IDE1IDI3LjQ3NSAxNC45MDgzIDI3LjI3NSAxNC43MjVDMjcuMDkxNyAxNC41MjUgMjcgMTQuMjgzMyAyNyAxNEMyNyAxMy43MTY3IDI3LjA5MTcgMTMuNDgzMyAyNy4yNzUgMTMuM0MyNy40NzUgMTMuMSAyNy43MTY3IDEzIDI4IDEzQzI4LjI4MzMgMTMgMjguNTE2NyAxMy4xIDI4LjcgMTMuM0MyOC45IDEzLjQ4MzMgMjkgMTMuNzE2NyAyOSAxNEMyOSAxNC4yODMzIDI4LjkgMTQuNTI1IDI4LjcgMTQuNzI1WiIvPiYjeGE7PHBhdGggZmlsbD0iYmxhY2siIGQ9Ik01IDE0QzUgMTIuMzQzMSA2LjM0MzE1IDExIDggMTFIMTRDMTQuNzc2IDExIDE1LjI4NCAxMS4xNTM3IDE1LjY0IDExLjM4MThDMTUuODU4OSAxMC43OTQgMTYuMTUxNyAxMC4xNzA5IDE2LjU1NSA5LjU5Nzk1QzE1Ljg3OTcgOS4yMTE1MyAxNS4wMzg2IDkgMTQgOUg4QzUuMjM4NTggOSAzIDExLjIzODYgMyAxNEMzIDE2Ljc2MTIgNS4yMzc1OSAxOSA3Ljk5OTI2IDE5SDE0QzE1Ljc2MzQgMTkgMTYuOTU3MyAxOC4zOTAyIDE3LjczNzUgMTcuMzVDMTguNDIyOCAxNi40MzYzIDE4LjcxNDggMTUuMjY2IDE4Ljk0ODMgMTQuMzI5OUwxOC45NzAxIDE0LjI0MjVDMTkuMjMyNyAxMy4xOTI0IDE5LjQ0NDIgMTIuNDA3NyAxOS44NjI1IDExLjg1QzIwLjIwNzMgMTEuMzkwMiAyMC43NjM0IDExIDIyIDExSDI4LjAwMDVDMjkuNjU3MiAxMSAzMSAxMi4zNDMgMzEgMTRDMzEgMTUuNjU2OSAyOS42NTY5IDE3IDI4IDE3SDIyQzIxLjIyNCAxNyAyMC43MTYgMTYuODQ2MyAyMC4zNiAxNi42MTgyQzIwLjE0MTEgMTcuMjA2IDE5Ljg0ODMgMTcuODI5MSAxOS40NDUgMTguNDAyQzIwLjEyMDMgMTguNzg4NSAyMC45NjE0IDE5IDIyIDE5SDI4QzMwLjc2MTQgMTkgMzMgMTYuNzYxNCAzMyAxNEMzMyAxMS4yMzg4IDMwLjc2MjEgOSAyOC4wMDA1IDlIMjJDMjAuMjM2NiA5IDE5LjA0MjcgOS42MDk3OSAxOC4yNjI1IDEwLjY1QzE3LjU3NzIgMTEuNTYzNyAxNy4yODUyIDEyLjczNCAxNy4wNTE3IDEzLjY3MDFMMTcuMDI5OSAxMy43NTc1QzE2Ljc2NzMgMTQuODA3NiAxNi41NTU4IDE1LjU5MjMgMTYuMTM3NSAxNi4xNUMxNS43OTI3IDE2LjYwOTggMTUuMjM2NiAxNyAxNCAxN0g3Ljk5OTI2QzYuMzQyNjUgMTcgNSAxNS42NTcxIDUgMTRaIiBjbGlwLXJ1bGU9ImV2ZW5vZGQiIGZpbGwtcnVsZT0iZXZlbm9kZCIvPiYjeGE7PHBhdGggZmlsbD0iYmxhY2siIGQ9Ik03IDIzLjVDNi43MTY2NyAyMy41IDYuNDc1IDIzLjQwODMgNi4yNzUgMjMuMjI1QzYuMDkxNjcgMjMuMDI1IDYgMjIuNzgzMyA2IDIyLjVDNiAyMi4yMTY3IDYuMDkxNjcgMjEuOTgzMyA2LjI3NSAyMS44QzYuNDc1IDIxLjYgNi43MTY2NyAyMS41IDcgMjEuNUgxMkMxMi4yODMzIDIxLjUgMTIuNTE2NyAyMS42IDEyLjcgMjEuOEMxMi45IDIxLjk4MzMgMTMgMjIuMjE2NyAxMyAyMi41QzEzIDIyLjc4MzMgMTIuOSAyMy4wMjUgMTIuNyAyMy4yMjVDMTIuNTE2NyAyMy40MDgzIDEyLjI4MzMgMjMuNSAxMiAyMy41SDdaTTUgMjcuNUM0LjcxNjY3IDI3LjUgNC40NzUgMjcuNDA4MyA0LjI3NSAyNy4yMjVDNC4wOTE2NyAyNy4wMjUgNCAyNi43ODMzIDQgMjYuNUM0IDI2LjIxNjcgNC4wOTE2NyAyNS45ODMzIDQuMjc1IDI1LjhDNC40NzUgMjUuNiA0LjcxNjY3IDI1LjUgNSAyNS41SDhDOC4yODMzMyAyNS41IDguNTE2NjcgMjUuNiA4LjcgMjUuOEM4LjkgMjUuOTgzMyA5IDI2LjIxNjcgOSAyNi41QzkgMjYuNzgzMyA4LjkgMjcuMDI1IDguNyAyNy4yMjVDOC41MTY2NyAyNy40MDgzIDguMjgzMzMgMjcuNSA4IDI3LjVINVpNMTIgMjcuNUMxMS43MTY3IDI3LjUgMTEuNDc1IDI3LjQwODMgMTEuMjc1IDI3LjIyNUMxMS4wOTE3IDI3LjAyNSAxMSAyNi43ODMzIDExIDI2LjVDMTEgMjYuMjE2NyAxMS4wOTE3IDI1Ljk4MzMgMTEuMjc1IDI1LjhDMTEuNDc1IDI1LjYgMTEuNzE2NyAyNS41IDEyIDI1LjVIMjBDMjAuMjgzMyAyNS41IDIwLjUxNjcgMjUuNiAyMC43IDI1LjhDMjAuOSAyNS45ODMzIDIxIDI2LjIxNjcgMjEgMjYuNUMyMSAyNi43ODMzIDIwLjkgMjcuMDI1IDIwLjcgMjcuMjI1QzIwLjUxNjcgMjcuNDA4MyAyMC4yODMzIDI3LjUgMjAgMjcuNUgxMlpNMjggMjcuNUMyNy43MTY3IDI3LjUgMjcuNDc1IDI3LjQwODMgMjcuMjc1IDI3LjIyNUMyNy4wOTE3IDI3LjAyNSAyNyAyNi43ODMzIDI3IDI2LjVDMjcgMjYuMjE2NyAyNy4wOTE3IDI1Ljk4MzMgMjcuMjc1IDI1LjhDMjcuNDc1IDI1LjYgMjcuNzE2NyAyNS41IDI4IDI1LjVIMzJDMzIuMjgzMyAyNS41IDMyLjUxNjcgMjUuNiAzMi43IDI1LjhDMzIuOSAyNS45ODMzIDMzIDI2LjIxNjcgMzMgMjYuNUMzMyAyNi43ODMzIDMyLjkgMjcuMDI1IDMyLjcgMjcuMjI1QzMyLjUxNjcgMjcuNDA4MyAzMi4yODMzIDI3LjUgMzIgMjcuNUgyOFpNMTYgMjMuNUMxNS43MTY3IDIzLjUgMTUuNDc1IDIzLjQwODMgMTUuMjc1IDIzLjIyNUMxNS4wOTE3IDIzLjAyNSAxNSAyMi43ODMzIDE1IDIyLjVDMTUgMjIuMjE2NyAxNS4wOTE3IDIxLjk4MzMgMTUuMjc1IDIxLjhDMTUuNDc1IDIxLjYgMTUuNzE2NyAyMS41IDE2IDIxLjVDMTYuMjgzMyAyMS41IDE2LjUxNjcgMjEuNiAxNi43IDIxLjhDMTYuOSAyMS45ODMzIDE3IDIyLjIxNjcgMTcgMjIuNUMxNyAyMi43ODMzIDE2LjkgMjMuMDI1IDE2LjcgMjMuMjI1QzE2LjUxNjcgMjMuNDA4MyAxNi4yODMzIDIzLjUgMTYgMjMuNVpNMjQgMjcuNUMyMy43MTY3IDI3LjUgMjMuNDc1IDI3LjQwODMgMjMuMjc1IDI3LjIyNUMyMy4wOTE3IDI3LjAyNSAyMyAyNi43ODMzIDIzIDI2LjVDMjMgMjYuMjE2NyAyMy4wOTE3IDI1Ljk4MzMgMjMuMjc1IDI1LjhDMjMuNDc1IDI1LjYgMjMuNzE2NyAyNS41IDI0IDI1LjVDMjQuMjgzMyAyNS41IDI0LjUxNjcgMjUuNiAyNC43IDI1LjhDMjQuOSAyNS45ODMzIDI1IDI2LjIxNjcgMjUgMjYuNUMyNSAyNi43ODMzIDI0LjkgMjcuMDI1IDI0LjcgMjcuMjI1QzI0LjUxNjcgMjcuNDA4MyAyNC4yODMzIDI3LjUgMjQgMjcuNVoiLz4mI3hhOzxwYXRoIGZpbGw9ImJsYWNrIiBkPSJNMTkuMjc1IDIzLjIyNUMxOS40NzUgMjMuNDA4MyAxOS43MTY3IDIzLjUgMjAgMjMuNUgyM0MyMy4yODMzIDIzLjUgMjMuNTE2NyAyMy40MDgzIDIzLjcgMjMuMjI1QzIzLjkgMjMuMDI1IDI0IDIyLjc4MzMgMjQgMjIuNUMyNCAyMi4yMTY3IDIzLjkgMjEuOTgzMyAyMy43IDIxLjhDMjMuNTE2NyAyMS42IDIzLjI4MzMgMjEuNSAyMyAyMS41SDIwQzE5LjcxNjcgMjEuNSAxOS40NzUgMjEuNiAxOS4yNzUgMjEuOEMxOS4wOTE3IDIxLjk4MzMgMTkgMjIuMjE2NyAxOSAyMi41QzE5IDIyLjc4MzMgMTkuMDkxNyAyMy4wMjUgMTkuMjc1IDIzLjIyNVoiLz4mI3hhOzxwYXRoIGZpbGw9ImJsYWNrIiBkPSJNMjYuMjc1IDIzLjIyNUMyNi40NzUgMjMuNDA4MyAyNi43MTY3IDIzLjUgMjcgMjMuNUgzMEMzMC4yODMzIDIzLjUgMzAuNTE2NyAyMy40MDgzIDMwLjcgMjMuMjI1QzMwLjkgMjMuMDI1IDMxIDIyLjc4MzMgMzEgMjIuNUMzMSAyMi4yMTY3IDMwLjkgMjEuOTgzMyAzMC43IDIxLjhDMzAuNTE2NyAyMS42IDMwLjI4MzMgMjEuNSAzMCAyMS41SDI3QzI2LjcxNjcgMjEuNSAyNi40NzUgMjEuNiAyNi4yNzUgMjEuOEMyNi4wOTE3IDIxLjk4MzMgMjYgMjIuMjE2NyAyNiAyMi41QzI2IDIyLjc4MzMgMjYuMDkxNyAyMy4wMjUgMjYuMjc1IDIzLjIyNVoiLz4mI3hhOzwvc3ZnPg==;fontFamily=Lucida Console;" parent="1" vertex="1">
          <mxGeometry x="-582" y="-760" width="20" height="12.67" as="geometry" />
        </mxCell>
        <mxCell id="ADdwPhCtNygSkYvrjW8B-5" value="" style="shape=image;verticalLabelPosition=bottom;labelBackgroundColor=default;verticalAlign=top;aspect=fixed;imageAspect=0;editableCssRules=.*;image=data:image/svg+xml,PHN2ZyB4bWxucz0iaHR0cDovL3d3dy53My5vcmcvMjAwMC9zdmciIGZpbGw9Im5vbmUiIHZpZXdCb3g9IjE5IDE2Ljk0MTE1MDY2NTI4MzIwMyAxMjkyLjczOTk5MDIzNDM3NSAxNzIuNTc4ODU3NDIxODc1IiBoZWlnaHQ9IjE3Mi41Nzg4NTc0MjE4NzUiIHdpZHRoPSIxMjkyLjczOTk5MDIzNDM3NSI+JiN4YTs8cGF0aCBzdHJva2UtbGluZWNhcD0icm91bmQiIHN0cm9rZS13aWR0aD0iMTIiIHN0cm9rZT0iYmxhY2siIGQ9Ik0yNSA5Ny44NTI4TDkyLjg4MjMgMjkuOTcwNkMxMDIuMjU1IDIwLjU5OCAxMTcuNDUxIDIwLjU5OCAxMjYuODIzIDI5Ljk3MDZWMjkuOTcwNkMxMzYuMTk2IDM5LjM0MzEgMTM2LjE5NiA1NC41MzkxIDEyNi44MjMgNjMuOTExN0w3NS41NTgxIDExNS4xNzciLz4mI3hhOzxwYXRoIHN0cm9rZS1saW5lY2FwPSJyb3VuZCIgc3Ryb2tlLXdpZHRoPSIxMiIgc3Ryb2tlPSJibGFjayIgZD0iTTc2LjI2NTMgMTE0LjQ3TDEyNi44MjMgNjMuOTExN0MxMzYuMTk2IDU0LjUzOTEgMTUxLjM5MiA1NC41MzkxIDE2MC43NjUgNjMuOTExN0wxNjEuMTE4IDY0LjI2NTJDMTcwLjQ5MSA3My42Mzc4IDE3MC40OTEgODguODMzOCAxNjEuMTE4IDk4LjIwNjNMOTkuNzI0OCAxNTkuNkM5Ni42MDA2IDE2Mi43MjQgOTYuNjAwNiAxNjcuNzg5IDk5LjcyNDggMTcwLjkxM0wxMTIuMzMxIDE4My41MiIvPiYjeGE7PHBhdGggc3Ryb2tlLWxpbmVjYXA9InJvdW5kIiBzdHJva2Utd2lkdGg9IjEyIiBzdHJva2U9ImJsYWNrIiBkPSJNMTA5Ljg1MyA0Ni45NDExTDU5LjY0ODIgOTcuMTQ1N0M1MC4yNzU3IDEwNi41MTggNTAuMjc1NyAxMjEuNzE0IDU5LjY0ODIgMTMxLjA4N1YxMzEuMDg3QzY5LjAyMDggMTQwLjQ1OSA4NC4yMTY4IDE0MC40NTkgOTMuNTg5NCAxMzEuMDg3TDE0My43OTQgODAuODgyMiIvPiYjeGE7PHBhdGggZmlsbD0iYmxhY2siIGQ9Ik0yMjMuODg2IDYzLjE4MThIMjM5LjM2NEwyNjAuMDkxIDExMy43NzNIMjYwLjkwOUwyODEuNjM2IDYzLjE4MThIMjk3LjExNFYxMzNIMjg0Ljk3N1Y4NS4wMzQxSDI4NC4zM0wyNjUuMDM0IDEzMi43OTVIMjU1Ljk2NkwyMzYuNjcgODQuOTMxOEgyMzYuMDIzVjEzM0gyMjMuODg2VjYzLjE4MThaTTMzMy4xODIgMTM0LjAyM0MzMjguMDY4IDEzNC4wMjMgMzIzLjYzNiAxMzIuODk4IDMxOS44ODYgMTMwLjY0OEMzMTYuMTM2IDEyOC4zOTggMzEzLjIyNyAxMjUuMjUgMzExLjE1OSAxMjEuMjA1QzMwOS4xMTQgMTE3LjE1OSAzMDguMDkxIDExMi40MzIgMzA4LjA5MSAxMDcuMDIzQzMwOC4wOTEgMTAxLjYxNCAzMDkuMTE0IDk2Ljg3NSAzMTEuMTU5IDkyLjgwNjhDMzEzLjIyNyA4OC43Mzg2IDMxNi4xMzYgODUuNTc5NSAzMTkuODg2IDgzLjMyOTVDMzIzLjYzNiA4MS4wNzk1IDMyOC4wNjggNzkuOTU0NSAzMzMuMTgyIDc5Ljk1NDVDMzM4LjI5NSA3OS45NTQ1IDM0Mi43MjcgODEuMDc5NSAzNDYuNDc3IDgzLjMyOTVDMzUwLjIyNyA4NS41Nzk1IDM1My4xMjUgODguNzM4NiAzNTUuMTcgOTIuODA2OEMzNTcuMjM5IDk2Ljg3NSAzNTguMjczIDEwMS42MTQgMzU4LjI3MyAxMDcuMDIzQzM1OC4yNzMgMTEyLjQzMiAzNTcuMjM5IDExNy4xNTkgMzU1LjE3IDEyMS4yMDVDMzUzLjEyNSAxMjUuMjUgMzUwLjIyNyAxMjguMzk4IDM0Ni40NzcgMTMwLjY0OEMzNDIuNzI3IDEzMi44OTggMzM4LjI5NSAxMzQuMDIzIDMzMy4xODIgMTM0LjAyM1pNMzMzLjI1IDEyNC4xMzZDMzM2LjAyMyAxMjQuMTM2IDMzOC4zNDEgMTIzLjM3NSAzNDAuMjA1IDEyMS44NTJDMzQyLjA2OCAxMjAuMzA3IDM0My40NTUgMTE4LjIzOSAzNDQuMzY0IDExNS42NDhDMzQ1LjI5NSAxMTMuMDU3IDM0NS43NjEgMTEwLjE3IDM0NS43NjEgMTA2Ljk4OUMzNDUuNzYxIDEwMy43ODQgMzQ1LjI5NSAxMDAuODg2IDM0NC4zNjQgOTguMjk1NUMzNDMuNDU1IDk1LjY4MTggMzQyLjA2OCA5My42MDIzIDM0MC4yMDUgOTIuMDU2OEMzMzguMzQxIDkwLjUxMTQgMzM2LjAyMyA4OS43Mzg2IDMzMy4yNSA4OS43Mzg2QzMzMC40MDkgODkuNzM4NiAzMjguMDQ1IDkwLjUxMTQgMzI2LjE1OSA5Mi4wNTY4QzMyNC4yOTUgOTMuNjAyMyAzMjIuODk4IDk1LjY4MTggMzIxLjk2NiA5OC4yOTU1QzMyMS4wNTcgMTAwLjg4NiAzMjAuNjAyIDEwMy43ODQgMzIwLjYwMiAxMDYuOTg5QzMyMC42MDIgMTEwLjE3IDMyMS4wNTcgMTEzLjA1NyAzMjEuOTY2IDExNS42NDhDMzIyLjg5OCAxMTguMjM5IDMyNC4yOTUgMTIwLjMwNyAzMjYuMTU5IDEyMS44NTJDMzI4LjA0NSAxMjMuMzc1IDMzMC40MDkgMTI0LjEzNiAzMzMuMjUgMTI0LjEzNlpNMzg4LjE3OSAxMzMuOTJDMzg0LjA2NSAxMzMuOTIgMzgwLjM4NCAxMzIuODY0IDM3Ny4xMzQgMTMwLjc1QzM3My44ODQgMTI4LjYzNiAzNzEuMzE1IDEyNS41NjggMzY5LjQyOSAxMjEuNTQ1QzM2Ny41NDMgMTE3LjUyMyAzNjYuNTk5IDExMi42MzYgMzY2LjU5OSAxMDYuODg2QzM2Ni41OTkgMTAxLjA2OCAzNjcuNTU0IDk2LjE1OTEgMzY5LjQ2MyA5Mi4xNTkxQzM3MS4zOTUgODguMTM2NCAzNzMuOTk3IDg1LjEwMjMgMzc3LjI3IDgzLjA1NjhDMzgwLjU0MyA4MC45ODg2IDM4NC4xOSA3OS45NTQ1IDM4OC4yMTMgNzkuOTU0NUMzOTEuMjgxIDc5Ljk1NDUgMzkzLjgwNCA4MC40NzczIDM5NS43ODEgODEuNTIyN0MzOTcuNzU5IDgyLjU0NTUgMzk5LjMyNyA4My43ODQxIDQwMC40ODYgODUuMjM4NkM0MDEuNjQ1IDg2LjY3MDUgNDAyLjU0MyA4OC4wMjI3IDQwMy4xNzkgODkuMjk1NUg0MDMuNjlWNjMuMTgxOEg0MTYuMDY1VjEzM0g0MDMuOTI5VjEyNC43NUg0MDMuMTc5QzQwMi41NDMgMTI2LjAyMyA0MDEuNjIyIDEyNy4zNzUgNDAwLjQxOCAxMjguODA3QzM5OS4yMTMgMTMwLjIxNiAzOTcuNjIyIDEzMS40MiAzOTUuNjQ1IDEzMi40MkMzOTMuNjY4IDEzMy40MiAzOTEuMTc5IDEzMy45MiAzODguMTc5IDEzMy45MlpNMzkxLjYyMiAxMjMuNzk1QzM5NC4yMzYgMTIzLjc5NSAzOTYuNDYzIDEyMy4wOTEgMzk4LjMwNCAxMjEuNjgyQzQwMC4xNDUgMTIwLjI1IDQwMS41NDMgMTE4LjI2MSA0MDIuNDk3IDExNS43MTZDNDAzLjQ1MiAxMTMuMTcgNDAzLjkyOSAxMTAuMjA1IDQwMy45MjkgMTA2LjgxOEM0MDMuOTI5IDEwMy40MzIgNDAzLjQ1MiAxMDAuNDg5IDQwMi40OTcgOTcuOTg4NkM0MDEuNTY1IDk1LjQ4ODYgNDAwLjE3OSA5My41NDU1IDM5OC4zMzggOTIuMTU5MUMzOTYuNTIgOTAuNzcyNyAzOTQuMjgxIDkwLjA3OTUgMzkxLjYyMiA5MC4wNzk1QzM4OC44NzIgOTAuMDc5NSAzODYuNTc3IDkwLjc5NTUgMzg0LjczNiA5Mi4yMjczQzM4Mi44OTUgOTMuNjU5MSAzODEuNTA5IDk1LjYzNjQgMzgwLjU3NyA5OC4xNTkxQzM3OS42NDUgMTAwLjY4MiAzNzkuMTc5IDEwMy41NjggMzc5LjE3OSAxMDYuODE4QzM3OS4xNzkgMTEwLjA5MSAzNzkuNjQ1IDExMy4wMTEgMzgwLjU3NyAxMTUuNThDMzgxLjUzMSAxMTguMTI1IDM4Mi45MjkgMTIwLjEzNiAzODQuNzcgMTIxLjYxNEMzODYuNjM0IDEyMy4wNjggMzg4LjkxOCAxMjMuNzk1IDM5MS42MjIgMTIzLjc5NVpNNDUyLjM5OCAxMzQuMDIzQzQ0Ny4xNDggMTM0LjAyMyA0NDIuNjE0IDEzMi45MzIgNDM4Ljc5NSAxMzAuNzVDNDM1IDEyOC41NDUgNDMyLjA4IDEyNS40MzIgNDMwLjAzNCAxMjEuNDA5QzQyNy45ODkgMTE3LjM2NCA0MjYuOTY2IDExMi42MDIgNDI2Ljk2NiAxMDcuMTI1QzQyNi45NjYgMTAxLjczOSA0MjcuOTg5IDk3LjAxMTQgNDMwLjAzNCA5Mi45NDMyQzQzMi4xMDIgODguODUyMyA0MzQuOTg5IDg1LjY3MDUgNDM4LjY5MyA4My4zOTc3QzQ0Mi4zOTggODEuMTAyMyA0NDYuNzUgNzkuOTU0NSA0NTEuNzUgNzkuOTU0NUM0NTQuOTc3IDc5Ljk1NDUgNDU4LjAyMyA4MC40NzczIDQ2MC44ODYgODEuNTIyN0M0NjMuNzczIDgyLjU0NTUgNDY2LjMxOCA4NC4xMzY0IDQ2OC41MjMgODYuMjk1NUM0NzAuNzUgODguNDU0NSA0NzIuNSA5MS4yMDQ1IDQ3My43NzMgOTQuNTQ1NUM0NzUuMDQ1IDk3Ljg2MzYgNDc1LjY4MiAxMDEuODE4IDQ3NS42ODIgMTA2LjQwOVYxMTAuMTkzSDQzMi43NjFWMTAxLjg3NUg0NjMuODUyQzQ2My44MyA5OS41MTE0IDQ2My4zMTggOTcuNDA5MSA0NjIuMzE4IDk1LjU2ODJDNDYxLjMxOCA5My43MDQ1IDQ1OS45MiA5Mi4yMzg2IDQ1OC4xMjUgOTEuMTcwNUM0NTYuMzUyIDkwLjEwMjMgNDU0LjI4NCA4OS41NjgyIDQ1MS45MiA4OS41NjgyQzQ0OS4zOTggODkuNTY4MiA0NDcuMTgyIDkwLjE4MTggNDQ1LjI3MyA5MS40MDkxQzQ0My4zNjQgOTIuNjEzNiA0NDEuODc1IDk0LjIwNDUgNDQwLjgwNyA5Ni4xODE4QzQzOS43NjEgOTguMTM2NCA0MzkuMjI3IDEwMC4yODQgNDM5LjIwNSAxMDIuNjI1VjEwOS44ODZDNDM5LjIwNSAxMTIuOTMyIDQzOS43NjEgMTE1LjU0NSA0NDAuODc1IDExNy43MjdDNDQxLjk4OSAxMTkuODg2IDQ0My41NDUgMTIxLjU0NSA0NDUuNTQ1IDEyMi43MDVDNDQ3LjU0NSAxMjMuODQxIDQ0OS44ODYgMTI0LjQwOSA0NTIuNTY4IDEyNC40MDlDNDU0LjM2NCAxMjQuNDA5IDQ1NS45ODkgMTI0LjE1OSA0NTcuNDQzIDEyMy42NTlDNDU4Ljg5OCAxMjMuMTM2IDQ2MC4xNTkgMTIyLjM3NSA0NjEuMjI3IDEyMS4zNzVDNDYyLjI5NSAxMjAuMzc1IDQ2My4xMDIgMTE5LjEzNiA0NjMuNjQ4IDExNy42NTlMNDc1LjE3IDExOC45NTVDNDc0LjQ0MyAxMjIgNDczLjA1NyAxMjQuNjU5IDQ3MS4wMTEgMTI2LjkzMkM0NjguOTg5IDEyOS4xODIgNDY2LjM5OCAxMzAuOTMyIDQ2My4yMzkgMTMyLjE4MkM0NjAuMDggMTMzLjQwOSA0NTYuNDY2IDEzNC4wMjMgNDUyLjM5OCAxMzQuMDIzWk00OTguNDYzIDYzLjE4MThWMTMzSDQ4Ni4xMjJWNjMuMTgxOEg0OTguNDYzWk01OTUuMjczIDg2LjczODZINTgyLjUyM0M1ODIuMTU5IDg0LjY0NzcgNTgxLjQ4OSA4Mi43OTU1IDU4MC41MTEgODEuMTgxOEM1NzkuNTM0IDc5LjU0NTUgNTc4LjMxOCA3OC4xNTkxIDU3Ni44NjQgNzcuMDIyN0M1NzUuNDA5IDc1Ljg4NjQgNTczLjc1IDc1LjAzNDEgNTcxLjg4NiA3NC40NjU5QzU3MC4wNDUgNzMuODc1IDU2OC4wNTcgNzMuNTc5NSA1NjUuOTIgNzMuNTc5NUM1NjIuMTI1IDczLjU3OTUgNTU4Ljc2MSA3NC41MzQxIDU1NS44MyA3Ni40NDMyQzU1Mi44OTggNzguMzI5NSA1NTAuNjAyIDgxLjEwMjMgNTQ4Ljk0MyA4NC43NjE0QzU0Ny4yODQgODguMzk3NyA1NDYuNDU1IDkyLjg0MDkgNTQ2LjQ1NSA5OC4wOTA5QzU0Ni40NTUgMTAzLjQzMiA1NDcuMjg0IDEwNy45MzIgNTQ4Ljk0MyAxMTEuNTkxQzU1MC42MjUgMTE1LjIyNyA1NTIuOTIgMTE3Ljk3NyA1NTUuODMgMTE5Ljg0MUM1NTguNzYxIDEyMS42ODIgNTYyLjExNCAxMjIuNjAyIDU2NS44ODYgMTIyLjYwMkM1NjcuOTc3IDEyMi42MDIgNTY5LjkzMiAxMjIuMzMgNTcxLjc1IDEyMS43ODRDNTczLjU5MSAxMjEuMjE2IDU3NS4yMzkgMTIwLjM4NiA1NzYuNjkzIDExOS4yOTVDNTc4LjE3IDExOC4yMDUgNTc5LjQwOSAxMTYuODY0IDU4MC40MDkgMTE1LjI3M0M1ODEuNDMyIDExMy42ODIgNTgyLjEzNiAxMTEuODY0IDU4Mi41MjMgMTA5LjgxOEw1OTUuMjczIDEwOS44ODZDNTk0Ljc5NSAxMTMuMjA1IDU5My43NjEgMTE2LjMxOCA1OTIuMTcgMTE5LjIyN0M1OTAuNjAyIDEyMi4xMzYgNTg4LjU0NSAxMjQuNzA1IDU4NiAxMjYuOTMyQzU4My40NTUgMTI5LjEzNiA1ODAuNDc3IDEzMC44NjQgNTc3LjA2OCAxMzIuMTE0QzU3My42NTkgMTMzLjM0MSA1NjkuODc1IDEzMy45NTUgNTY1LjcxNiAxMzMuOTU1QzU1OS41OCAxMzMuOTU1IDU1NC4xMDIgMTMyLjUzNCA1NDkuMjg0IDEyOS42OTNDNTQ0LjQ2NiAxMjYuODUyIDU0MC42NyAxMjIuNzUgNTM3Ljg5OCAxMTcuMzg2QzUzNS4xMjUgMTEyLjAyMyA1MzMuNzM5IDEwNS41OTEgNTMzLjczOSA5OC4wOTA5QzUzMy43MzkgOTAuNTY4MiA1MzUuMTM2IDg0LjEzNjQgNTM3LjkzMiA3OC43OTU1QzU0MC43MjcgNzMuNDMxOCA1NDQuNTM0IDY5LjMyOTUgNTQ5LjM1MiA2Ni40ODg2QzU1NC4xNyA2My42NDc3IDU1OS42MjUgNjIuMjI3MyA1NjUuNzE2IDYyLjIyNzNDNTY5LjYwMiA2Mi4yMjczIDU3My4yMTYgNjIuNzcyNyA1NzYuNTU3IDYzLjg2MzZDNTc5Ljg5OCA2NC45NTQ1IDU4Mi44NzUgNjYuNTU2OCA1ODUuNDg5IDY4LjY3MDVDNTg4LjEwMiA3MC43NjE0IDU5MC4yNSA3My4zMjk1IDU5MS45MzIgNzYuMzc1QzU5My42MzYgNzkuMzk3NyA1OTQuNzUgODIuODUyMyA1OTUuMjczIDg2LjczODZaTTYyOS4xNTEgMTM0LjAyM0M2MjQuMDM3IDEzNC4wMjMgNjE5LjYwNSAxMzIuODk4IDYxNS44NTUgMTMwLjY0OEM2MTIuMTA1IDEyOC4zOTggNjA5LjE5NiAxMjUuMjUgNjA3LjEyOCAxMjEuMjA1QzYwNS4wODIgMTE3LjE1OSA2MDQuMDYgMTEyLjQzMiA2MDQuMDYgMTA3LjAyM0M2MDQuMDYgMTAxLjYxNCA2MDUuMDgyIDk2Ljg3NSA2MDcuMTI4IDkyLjgwNjhDNjA5LjE5NiA4OC43Mzg2IDYxMi4xMDUgODUuNTc5NSA2MTUuODU1IDgzLjMyOTVDNjE5LjYwNSA4MS4wNzk1IDYyNC4wMzcgNzkuOTU0NSA2MjkuMTUxIDc5Ljk1NDVDNjM0LjI2NCA3OS45NTQ1IDYzOC42OTYgODEuMDc5NSA2NDIuNDQ2IDgzLjMyOTVDNjQ2LjE5NiA4NS41Nzk1IDY0OS4wOTQgODguNzM4NiA2NTEuMTM5IDkyLjgwNjhDNjUzLjIwNyA5Ni44NzUgNjU0LjI0MSAxMDEuNjE0IDY1NC4yNDEgMTA3LjAyM0M2NTQuMjQxIDExMi40MzIgNjUzLjIwNyAxMTcuMTU5IDY1MS4xMzkgMTIxLjIwNUM2NDkuMDk0IDEyNS4yNSA2NDYuMTk2IDEyOC4zOTggNjQyLjQ0NiAxMzAuNjQ4QzYzOC42OTYgMTMyLjg5OCA2MzQuMjY0IDEzNC4wMjMgNjI5LjE1MSAxMzQuMDIzWk02MjkuMjE5IDEyNC4xMzZDNjMxLjk5MSAxMjQuMTM2IDYzNC4zMSAxMjMuMzc1IDYzNi4xNzMgMTIxLjg1MkM2MzguMDM3IDEyMC4zMDcgNjM5LjQyMyAxMTguMjM5IDY0MC4zMzIgMTE1LjY0OEM2NDEuMjY0IDExMy4wNTcgNjQxLjczIDExMC4xNyA2NDEuNzMgMTA2Ljk4OUM2NDEuNzMgMTAzLjc4NCA2NDEuMjY0IDEwMC44ODYgNjQwLjMzMiA5OC4yOTU1QzYzOS40MjMgOTUuNjgxOCA2MzguMDM3IDkzLjYwMjMgNjM2LjE3MyA5Mi4wNTY4QzYzNC4zMSA5MC41MTE0IDYzMS45OTEgODkuNzM4NiA2MjkuMjE5IDg5LjczODZDNjI2LjM3OCA4OS43Mzg2IDYyNC4wMTQgOTAuNTExNCA2MjIuMTI4IDkyLjA1NjhDNjIwLjI2NCA5My42MDIzIDYxOC44NjYgOTUuNjgxOCA2MTcuOTM1IDk4LjI5NTVDNjE3LjAyNiAxMDAuODg2IDYxNi41NzEgMTAzLjc4NCA2MTYuNTcxIDEwNi45ODlDNjE2LjU3MSAxMTAuMTcgNjE3LjAyNiAxMTMuMDU3IDYxNy45MzUgMTE1LjY0OEM2MTguODY2IDExOC4yMzkgNjIwLjI2NCAxMjAuMzA3IDYyMi4xMjggMTIxLjg1MkM2MjQuMDE0IDEyMy4zNzUgNjI2LjM3OCAxMjQuMTM2IDYyOS4yMTkgMTI0LjEzNlpNNjc3LjA1NyAxMDIuMzE4VjEzM0g2NjQuNzE2VjgwLjYzNjRINjc2LjUxMVY4OS41MzQxSDY3Ny4xMjVDNjc4LjMzIDg2LjYwMjMgNjgwLjI1IDg0LjI3MjcgNjgyLjg4NiA4Mi41NDU1QzY4NS41NDUgODAuODE4MiA2ODguODMgNzkuOTU0NSA2OTIuNzM5IDc5Ljk1NDVDNjk2LjM1MiA3OS45NTQ1IDY5OS41IDgwLjcyNzMgNzAyLjE4MiA4Mi4yNzI3QzcwNC44ODYgODMuODE4MiA3MDYuOTc3IDg2LjA1NjggNzA4LjQ1NSA4OC45ODg2QzcwOS45NTUgOTEuOTIwNSA3MTAuNjkzIDk1LjQ3NzMgNzEwLjY3IDk5LjY1OTFWMTMzSDY5OC4zM1YxMDEuNTY4QzY5OC4zMyA5OC4wNjgyIDY5Ny40MiA5NS4zMjk1IDY5NS42MDIgOTMuMzUyM0M2OTMuODA3IDkxLjM3NSA2OTEuMzE4IDkwLjM4NjQgNjg4LjEzNiA5MC4zODY0QzY4NS45NzcgOTAuMzg2NCA2ODQuMDU3IDkwLjg2MzYgNjgyLjM3NSA5MS44MTgyQzY4MC43MTYgOTIuNzUgNjc5LjQwOSA5NC4xMDIzIDY3OC40NTUgOTUuODc1QzY3Ny41MjMgOTcuNjQ3NyA2NzcuMDU3IDk5Ljc5NTUgNjc3LjA1NyAxMDIuMzE4Wk03NDkuMzY0IDgwLjYzNjRWOTAuMTgxOEg3MTkuMjYxVjgwLjYzNjRINzQ5LjM2NFpNNzI2LjY5MyA2OC4wOTA5SDczOS4wMzRWMTE3LjI1QzczOS4wMzQgMTE4LjkwOSA3MzkuMjg0IDEyMC4xODIgNzM5Ljc4NCAxMjEuMDY4Qzc0MC4zMDcgMTIxLjkzMiA3NDAuOTg5IDEyMi41MjMgNzQxLjgzIDEyMi44NDFDNzQyLjY3IDEyMy4xNTkgNzQzLjYwMiAxMjMuMzE4IDc0NC42MjUgMTIzLjMxOEM3NDUuMzk4IDEyMy4zMTggNzQ2LjEwMiAxMjMuMjYxIDc0Ni43MzkgMTIzLjE0OEM3NDcuMzk4IDEyMy4wMzQgNzQ3Ljg5OCAxMjIuOTMyIDc0OC4yMzkgMTIyLjg0MUw3NTAuMzE4IDEzMi40ODlDNzQ5LjY1OSAxMzIuNzE2IDc0OC43MTYgMTMyLjk2NiA3NDcuNDg5IDEzMy4yMzlDNzQ2LjI4NCAxMzMuNTExIDc0NC44MDcgMTMzLjY3IDc0My4wNTcgMTMzLjcxNkM3MzkuOTY2IDEzMy44MDcgNzM3LjE4MiAxMzMuMzQxIDczNC43MDUgMTMyLjMxOEM3MzIuMjI3IDEzMS4yNzMgNzMwLjI2MSAxMjkuNjU5IDcyOC44MDcgMTI3LjQ3N0M3MjcuMzc1IDEyNS4yOTUgNzI2LjY3IDEyMi41NjggNzI2LjY5MyAxMTkuMjk1VjY4LjA5MDlaTTc4Mi4zMDQgMTM0LjAyM0M3NzcuMDU0IDEzNC4wMjMgNzcyLjUyIDEzMi45MzIgNzY4LjcwMiAxMzAuNzVDNzY0LjkwNiAxMjguNTQ1IDc2MS45ODYgMTI1LjQzMiA3NTkuOTQgMTIxLjQwOUM3NTcuODk1IDExNy4zNjQgNzU2Ljg3MiAxMTIuNjAyIDc1Ni44NzIgMTA3LjEyNUM3NTYuODcyIDEwMS43MzkgNzU3Ljg5NSA5Ny4wMTE0IDc1OS45NCA5Mi45NDMyQzc2Mi4wMDkgODguODUyMyA3NjQuODk1IDg1LjY3MDUgNzY4LjU5OSA4My4zOTc3Qzc3Mi4zMDQgODEuMTAyMyA3NzYuNjU2IDc5Ljk1NDUgNzgxLjY1NiA3OS45NTQ1Qzc4NC44ODQgNzkuOTU0NSA3ODcuOTI5IDgwLjQ3NzMgNzkwLjc5MyA4MS41MjI3Qzc5My42NzkgODIuNTQ1NSA3OTYuMjI0IDg0LjEzNjQgNzk4LjQyOSA4Ni4yOTU1QzgwMC42NTYgODguNDU0NSA4MDIuNDA2IDkxLjIwNDUgODAzLjY3OSA5NC41NDU1QzgwNC45NTIgOTcuODYzNiA4MDUuNTg4IDEwMS44MTggODA1LjU4OCAxMDYuNDA5VjExMC4xOTNINzYyLjY2OFYxMDEuODc1SDc5My43NTlDNzkzLjczNiA5OS41MTE0IDc5My4yMjQgOTcuNDA5MSA3OTIuMjI0IDk1LjU2ODJDNzkxLjIyNCA5My43MDQ1IDc4OS44MjcgOTIuMjM4NiA3ODguMDMxIDkxLjE3MDVDNzg2LjI1OSA5MC4xMDIzIDc4NC4xOSA4OS41NjgyIDc4MS44MjcgODkuNTY4MkM3NzkuMzA0IDg5LjU2ODIgNzc3LjA4OCA5MC4xODE4IDc3NS4xNzkgOTEuNDA5MUM3NzMuMjcgOTIuNjEzNiA3NzEuNzgxIDk0LjIwNDUgNzcwLjcxMyA5Ni4xODE4Qzc2OS42NjggOTguMTM2NCA3NjkuMTM0IDEwMC4yODQgNzY5LjExMSAxMDIuNjI1VjEwOS44ODZDNzY5LjExMSAxMTIuOTMyIDc2OS42NjggMTE1LjU0NSA3NzAuNzgxIDExNy43MjdDNzcxLjg5NSAxMTkuODg2IDc3My40NTIgMTIxLjU0NSA3NzUuNDUyIDEyMi43MDVDNzc3LjQ1MiAxMjMuODQxIDc3OS43OTMgMTI0LjQwOSA3ODIuNDc0IDEyNC40MDlDNzg0LjI3IDEyNC40MDkgNzg1Ljg5NSAxMjQuMTU5IDc4Ny4zNDkgMTIzLjY1OUM3ODguODA0IDEyMy4xMzYgNzkwLjA2NSAxMjIuMzc1IDc5MS4xMzQgMTIxLjM3NUM3OTIuMjAyIDEyMC4zNzUgNzkzLjAwOSAxMTkuMTM2IDc5My41NTQgMTE3LjY1OUw4MDUuMDc3IDExOC45NTVDODA0LjM0OSAxMjIgODAyLjk2MyAxMjQuNjU5IDgwMC45MTggMTI2LjkzMkM3OTguODk1IDEyOS4xODIgNzk2LjMwNCAxMzAuOTMyIDc5My4xNDUgMTMyLjE4MkM3ODkuOTg2IDEzMy40MDkgNzg2LjM3MiAxMzQuMDIzIDc4Mi4zMDQgMTM0LjAyM1pNODI0Ljk5NCA4MC42MzY0TDgzNS41NjIgOTkuOTY1OUw4NDYuMzAxIDgwLjYzNjRIODU5LjM1OEw4NDMuNTc0IDEwNi44MThMODU5LjYzMSAxMzNIODQ2LjY0Mkw4MzUuNTYyIDExNC4xNDhMODI0LjU4NSAxMzNIODExLjQ5NEw4MjcuNDQ5IDEwNi44MThMODExLjkwMyA4MC42MzY0SDgyNC45OTRaTTg5NS4wNTEgODAuNjM2NFY5MC4xODE4SDg2NC45NDlWODAuNjM2NEg4OTUuMDUxWk04NzIuMzgxIDY4LjA5MDlIODg0LjcyMlYxMTcuMjVDODg0LjcyMiAxMTguOTA5IDg4NC45NzIgMTIwLjE4MiA4ODUuNDcyIDEyMS4wNjhDODg1Ljk5NCAxMjEuOTMyIDg4Ni42NzYgMTIyLjUyMyA4ODcuNTE3IDEyMi44NDFDODg4LjM1OCAxMjMuMTU5IDg4OS4yOSAxMjMuMzE4IDg5MC4zMTIgMTIzLjMxOEM4OTEuMDg1IDEyMy4zMTggODkxLjc5IDEyMy4yNjEgODkyLjQyNiAxMjMuMTQ4Qzg5My4wODUgMTIzLjAzNCA4OTMuNTg1IDEyMi45MzIgODkzLjkyNiAxMjIuODQxTDg5Ni4wMDYgMTMyLjQ4OUM4OTUuMzQ3IDEzMi43MTYgODk0LjQwMyAxMzIuOTY2IDg5My4xNzYgMTMzLjIzOUM4OTEuOTcyIDEzMy41MTEgODkwLjQ5NCAxMzMuNjcgODg4Ljc0NCAxMzMuNzE2Qzg4NS42NTMgMTMzLjgwNyA4ODIuODY5IDEzMy4zNDEgODgwLjM5MiAxMzIuMzE4Qzg3Ny45MTUgMTMxLjI3MyA4NzUuOTQ5IDEyOS42NTkgODc0LjQ5NCAxMjcuNDc3Qzg3My4wNjMgMTI1LjI5NSA4NzIuMzU4IDEyMi41NjggODcyLjM4MSAxMTkuMjk1VjY4LjA5MDlaTTkyOS43MyAxMzNWNjMuMTgxOEg5NTUuOTEyQzk2MS4yNzYgNjMuMTgxOCA5NjUuNzc2IDY0LjE4MTggOTY5LjQxMiA2Ni4xODE4Qzk3My4wNzEgNjguMTgxOCA5NzUuODMyIDcwLjkzMTggOTc3LjY5NiA3NC40MzE4Qzk3OS41ODIgNzcuOTA5MSA5ODAuNTI2IDgxLjg2MzYgOTgwLjUyNiA4Ni4yOTU1Qzk4MC41MjYgOTAuNzcyNyA5NzkuNTgyIDk0Ljc1IDk3Ny42OTYgOTguMjI3M0M5NzUuODEgMTAxLjcwNSA5NzMuMDI2IDEwNC40NDMgOTY5LjM0NCAxMDYuNDQzQzk2NS42NjIgMTA4LjQyIDk2MS4xMjggMTA5LjQwOSA5NTUuNzQxIDEwOS40MDlIOTM4LjM4OVY5OS4wMTE0SDk1NC4wMzdDOTU3LjE3MyA5OS4wMTE0IDk1OS43NDEgOTguNDY1OSA5NjEuNzQxIDk3LjM3NUM5NjMuNzQxIDk2LjI4NDEgOTY1LjIxOSA5NC43ODQxIDk2Ni4xNzMgOTIuODc1Qzk2Ny4xNTEgOTAuOTY1OSA5NjcuNjM5IDg4Ljc3MjcgOTY3LjYzOSA4Ni4yOTU1Qzk2Ny42MzkgODMuODE4MiA5NjcuMTUxIDgxLjYzNjQgOTY2LjE3MyA3OS43NUM5NjUuMjE5IDc3Ljg2MzYgOTYzLjczIDc2LjM5NzcgOTYxLjcwNyA3NS4zNTIzQzk1OS43MDcgNzQuMjg0MSA5NTcuMTI4IDczLjc1IDk1My45NjkgNzMuNzVIOTQyLjM3OFYxMzNIOTI5LjczWk05OTAuOTY2IDEzM1Y4MC42MzY0SDEwMDIuOTNWODkuMzYzNkgxMDAzLjQ4QzEwMDQuNDMgODYuMzQwOSAxMDA2LjA3IDg0LjAxMTQgMTAwOC4zOSA4Mi4zNzVDMTAxMC43MyA4MC43MTU5IDEwMTMuNCA3OS44ODY0IDEwMTYuNCA3OS44ODY0QzEwMTcuMDggNzkuODg2NCAxMDE3Ljg0IDc5LjkyMDUgMTAxOC42OCA3OS45ODg2QzEwMTkuNTUgODAuMDM0MSAxMDIwLjI2IDgwLjExMzYgMTAyMC44MyA4MC4yMjczVjkxLjU3OTVDMTAyMC4zMSA5MS4zOTc3IDEwMTkuNDggOTEuMjM4NiAxMDE4LjM0IDkxLjEwMjNDMTAxNy4yMyA5MC45NDMyIDEwMTYuMTUgOTAuODYzNiAxMDE1LjEgOTAuODYzNkMxMDEyLjg1IDkwLjg2MzYgMTAxMC44MyA5MS4zNTIzIDEwMDkuMDMgOTIuMzI5NUMxMDA3LjI2IDkzLjI4NDEgMTAwNS44NiA5NC42MTM2IDEwMDQuODQgOTYuMzE4MkMxMDAzLjgyIDk4LjAyMjcgMTAwMy4zMSA5OS45ODg2IDEwMDMuMzEgMTAyLjIxNlYxMzNIOTkwLjk2NlpNMTA0OS43MSAxMzQuMDIzQzEwNDQuNiAxMzQuMDIzIDEwNDAuMTcgMTMyLjg5OCAxMDM2LjQyIDEzMC42NDhDMTAzMi42NyAxMjguMzk4IDEwMjkuNzYgMTI1LjI1IDEwMjcuNjkgMTIxLjIwNUMxMDI1LjY0IDExNy4xNTkgMTAyNC42MiAxMTIuNDMyIDEwMjQuNjIgMTA3LjAyM0MxMDI0LjYyIDEwMS42MTQgMTAyNS42NCA5Ni44NzUgMTAyNy42OSA5Mi44MDY4QzEwMjkuNzYgODguNzM4NiAxMDMyLjY3IDg1LjU3OTUgMTAzNi40MiA4My4zMjk1QzEwNDAuMTcgODEuMDc5NSAxMDQ0LjYgNzkuOTU0NSAxMDQ5LjcxIDc5Ljk1NDVDMTA1NC44MyA3OS45NTQ1IDEwNTkuMjYgODEuMDc5NSAxMDYzLjAxIDgzLjMyOTVDMTA2Ni43NiA4NS41Nzk1IDEwNjkuNjYgODguNzM4NiAxMDcxLjcgOTIuODA2OEMxMDczLjc3IDk2Ljg3NSAxMDc0LjggMTAxLjYxNCAxMDc0LjggMTA3LjAyM0MxMDc0LjggMTEyLjQzMiAxMDczLjc3IDExNy4xNTkgMTA3MS43IDEyMS4yMDVDMTA2OS42NiAxMjUuMjUgMTA2Ni43NiAxMjguMzk4IDEwNjMuMDEgMTMwLjY0OEMxMDU5LjI2IDEzMi44OTggMTA1NC44MyAxMzQuMDIzIDEwNDkuNzEgMTM0LjAyM1pNMTA0OS43OCAxMjQuMTM2QzEwNTIuNTUgMTI0LjEzNiAxMDU0Ljg3IDEyMy4zNzUgMTA1Ni43NCAxMjEuODUyQzEwNTguNiAxMjAuMzA3IDEwNTkuOTkgMTE4LjIzOSAxMDYwLjg5IDExNS42NDhDMTA2MS44MyAxMTMuMDU3IDEwNjIuMjkgMTEwLjE3IDEwNjIuMjkgMTA2Ljk4OUMxMDYyLjI5IDEwMy43ODQgMTA2MS44MyAxMDAuODg2IDEwNjAuODkgOTguMjk1NUMxMDU5Ljk5IDk1LjY4MTggMTA1OC42IDkzLjYwMjMgMTA1Ni43NCA5Mi4wNTY4QzEwNTQuODcgOTAuNTExNCAxMDUyLjU1IDg5LjczODYgMTA0OS43OCA4OS43Mzg2QzEwNDYuOTQgODkuNzM4NiAxMDQ0LjU4IDkwLjUxMTQgMTA0Mi42OSA5Mi4wNTY4QzEwNDAuODMgOTMuNjAyMyAxMDM5LjQzIDk1LjY4MTggMTAzOC41IDk4LjI5NTVDMTAzNy41OSAxMDAuODg2IDEwMzcuMTMgMTAzLjc4NCAxMDM3LjEzIDEwNi45ODlDMTAzNy4xMyAxMTAuMTcgMTAzNy41OSAxMTMuMDU3IDEwMzguNSAxMTUuNjQ4QzEwMzkuNDMgMTE4LjIzOSAxMDQwLjgzIDEyMC4zMDcgMTA0Mi42OSAxMjEuODUyQzEwNDQuNTggMTIzLjM3NSAxMDQ2Ljk0IDEyNC4xMzYgMTA0OS43OCAxMjQuMTM2Wk0xMTExLjQzIDgwLjYzNjRWOTAuMTgxOEgxMDgxLjMyVjgwLjYzNjRIMTExMS40M1pNMTA4OC43NiA2OC4wOTA5SDExMDEuMVYxMTcuMjVDMTEwMS4xIDExOC45MDkgMTEwMS4zNSAxMjAuMTgyIDExMDEuODUgMTIxLjA2OEMxMTAyLjM3IDEyMS45MzIgMTEwMy4wNSAxMjIuNTIzIDExMDMuODkgMTIyLjg0MUMxMTA0LjczIDEyMy4xNTkgMTEwNS42NiAxMjMuMzE4IDExMDYuNjkgMTIzLjMxOEMxMTA3LjQ2IDEyMy4zMTggMTEwOC4xNiAxMjMuMjYxIDExMDguOCAxMjMuMTQ4QzExMDkuNDYgMTIzLjAzNCAxMTA5Ljk2IDEyMi45MzIgMTExMC4zIDEyMi44NDFMMTExMi4zOCAxMzIuNDg5QzExMTEuNzIgMTMyLjcxNiAxMTEwLjc4IDEzMi45NjYgMTEwOS41NSAxMzMuMjM5QzExMDguMzUgMTMzLjUxMSAxMTA2Ljg3IDEzMy42NyAxMTA1LjEyIDEzMy43MTZDMTEwMi4wMyAxMzMuODA3IDEwOTkuMjQgMTMzLjM0MSAxMDk2Ljc3IDEzMi4zMThDMTA5NC4yOSAxMzEuMjczIDEwOTIuMzIgMTI5LjY1OSAxMDkwLjg3IDEyNy40NzdDMTA4OS40NCAxMjUuMjk1IDEwODguNzMgMTIyLjU2OCAxMDg4Ljc2IDExOS4yOTVWNjguMDkwOVpNMTE0NC4wMyAxMzQuMDIzQzExMzguOTEgMTM0LjAyMyAxMTM0LjQ4IDEzMi44OTggMTEzMC43MyAxMzAuNjQ4QzExMjYuOTggMTI4LjM5OCAxMTI0LjA3IDEyNS4yNSAxMTIyIDEyMS4yMDVDMTExOS45NiAxMTcuMTU5IDExMTguOTMgMTEyLjQzMiAxMTE4LjkzIDEwNy4wMjNDMTExOC45MyAxMDEuNjE0IDExMTkuOTYgOTYuODc1IDExMjIgOTIuODA2OEMxMTI0LjA3IDg4LjczODYgMTEyNi45OCA4NS41Nzk1IDExMzAuNzMgODMuMzI5NUMxMTM0LjQ4IDgxLjA3OTUgMTEzOC45MSA3OS45NTQ1IDExNDQuMDMgNzkuOTU0NUMxMTQ5LjE0IDc5Ljk1NDUgMTE1My41NyA4MS4wNzk1IDExNTcuMzIgODMuMzI5NUMxMTYxLjA3IDg1LjU3OTUgMTE2My45NyA4OC43Mzg2IDExNjYuMDEgOTIuODA2OEMxMTY4LjA4IDk2Ljg3NSAxMTY5LjEyIDEwMS42MTQgMTE2OS4xMiAxMDcuMDIzQzExNjkuMTIgMTEyLjQzMiAxMTY4LjA4IDExNy4xNTkgMTE2Ni4wMSAxMjEuMjA1QzExNjMuOTcgMTI1LjI1IDExNjEuMDcgMTI4LjM5OCAxMTU3LjMyIDEzMC42NDhDMTE1My41NyAxMzIuODk4IDExNDkuMTQgMTM0LjAyMyAxMTQ0LjAzIDEzNC4wMjNaTTExNDQuMDkgMTI0LjEzNkMxMTQ2Ljg3IDEyNC4xMzYgMTE0OS4xOCAxMjMuMzc1IDExNTEuMDUgMTIxLjg1MkMxMTUyLjkxIDEyMC4zMDcgMTE1NC4zIDExOC4yMzkgMTE1NS4yMSAxMTUuNjQ4QzExNTYuMTQgMTEzLjA1NyAxMTU2LjYxIDExMC4xNyAxMTU2LjYxIDEwNi45ODlDMTE1Ni42MSAxMDMuNzg0IDExNTYuMTQgMTAwLjg4NiAxMTU1LjIxIDk4LjI5NTVDMTE1NC4zIDk1LjY4MTggMTE1Mi45MSA5My42MDIzIDExNTEuMDUgOTIuMDU2OEMxMTQ5LjE4IDkwLjUxMTQgMTE0Ni44NyA4OS43Mzg2IDExNDQuMDkgODkuNzM4NkMxMTQxLjI1IDg5LjczODYgMTEzOC44OSA5MC41MTE0IDExMzcgOTIuMDU2OEMxMTM1LjE0IDkzLjYwMjMgMTEzMy43NCA5NS42ODE4IDExMzIuODEgOTguMjk1NUMxMTMxLjkgMTAwLjg4NiAxMTMxLjQ1IDEwMy43ODQgMTEzMS40NSAxMDYuOTg5QzExMzEuNDUgMTEwLjE3IDExMzEuOSAxMTMuMDU3IDExMzIuODEgMTE1LjY0OEMxMTMzLjc0IDExOC4yMzkgMTEzNS4xNCAxMjAuMzA3IDExMzcgMTIxLjg1MkMxMTM4Ljg5IDEyMy4zNzUgMTE0MS4yNSAxMjQuMTM2IDExNDQuMDkgMTI0LjEzNlpNMTIwMi40MyAxMzQuMDIzQzExOTcuMiAxMzQuMDIzIDExOTIuNzIgMTMyLjg3NSAxMTg4Ljk3IDEzMC41OEMxMTg1LjI0IDEyOC4yODQgMTE4Mi4zNiAxMjUuMTE0IDExODAuMzQgMTIxLjA2OEMxMTc4LjM0IDExNyAxMTc3LjM0IDExMi4zMTggMTE3Ny4zNCAxMDcuMDIzQzExNzcuMzQgMTAxLjcwNSAxMTc4LjM2IDk3LjAxMTQgMTE4MC40MSA5Mi45NDMyQzExODIuNDUgODguODUyMyAxMTg1LjM0IDg1LjY3MDUgMTE4OS4wNyA4My4zOTc3QzExOTIuODIgODEuMTAyMyAxMTk3LjI1IDc5Ljk1NDUgMTIwMi4zNiA3OS45NTQ1QzEyMDYuNjEgNzkuOTU0NSAxMjEwLjM4IDgwLjczODYgMTIxMy42NSA4Mi4zMDY4QzEyMTYuOTQgODMuODUyMyAxMjE5LjU3IDg2LjA0NTUgMTIyMS41MiA4OC44ODY0QzEyMjMuNDggOTEuNzA0NSAxMjI0LjU5IDk1IDEyMjQuODYgOTguNzcyN0gxMjEzLjA3QzEyMTIuNTkgOTYuMjUgMTIxMS40NSA5NC4xNDc3IDEyMDkuNjYgOTIuNDY1OUMxMjA3Ljg5IDkwLjc2MTQgMTIwNS41MSA4OS45MDkxIDEyMDIuNTMgODkuOTA5MUMxMjAwLjAxIDg5LjkwOTEgMTE5Ny44IDkwLjU5MDkgMTE5NS44OSA5MS45NTQ1QzExOTMuOTggOTMuMjk1NSAxMTkyLjQ5IDk1LjIyNzMgMTE5MS40MiA5Ny43NUMxMTkwLjM4IDEwMC4yNzMgMTE4OS44NSAxMDMuMjk1IDExODkuODUgMTA2LjgxOEMxMTg5Ljg1IDExMC4zODYgMTE5MC4zOCAxMTMuNDU1IDExOTEuNDIgMTE2LjAyM0MxMTkyLjQ3IDExOC41NjggMTE5My45MyAxMjAuNTM0IDExOTUuODIgMTIxLjkyQzExOTcuNzMgMTIzLjI4NCAxMTk5Ljk3IDEyMy45NjYgMTIwMi41MyAxMjMuOTY2QzEyMDQuMzUgMTIzLjk2NiAxMjA1Ljk4IDEyMy42MjUgMTIwNy40MSAxMjIuOTQzQzEyMDguODYgMTIyLjIzOSAxMjEwLjA4IDEyMS4yMjcgMTIxMS4wNiAxMTkuOTA5QzEyMTIuMDMgMTE4LjU5MSAxMjEyLjcgMTE2Ljk4OSAxMjEzLjA3IDExNS4xMDJIMTIyNC44NkMxMjI0LjU3IDExOC44MDcgMTIyMy40OCAxMjIuMDkxIDEyMjEuNTkgMTI0Ljk1NUMxMjE5LjcgMTI3Ljc5NSAxMjE3LjE0IDEzMC4wMjMgMTIxMy44OSAxMzEuNjM2QzEyMTAuNjQgMTMzLjIyNyAxMjA2LjgyIDEzNC4wMjMgMTIwMi40MyAxMzQuMDIzWk0xMjU3Ljg0IDEzNC4wMjNDMTI1Mi43MiAxMzQuMDIzIDEyNDguMjkgMTMyLjg5OCAxMjQ0LjU0IDEzMC42NDhDMTI0MC43OSAxMjguMzk4IDEyMzcuODggMTI1LjI1IDEyMzUuODIgMTIxLjIwNUMxMjMzLjc3IDExNy4xNTkgMTIzMi43NSAxMTIuNDMyIDEyMzIuNzUgMTA3LjAyM0MxMjMyLjc1IDEwMS42MTQgMTIzMy43NyA5Ni44NzUgMTIzNS44MiA5Mi44MDY4QzEyMzcuODggODguNzM4NiAxMjQwLjc5IDg1LjU3OTUgMTI0NC41NCA4My4zMjk1QzEyNDguMjkgODEuMDc5NSAxMjUyLjcyIDc5Ljk1NDUgMTI1Ny44NCA3OS45NTQ1QzEyNjIuOTUgNzkuOTU0NSAxMjY3LjM4IDgxLjA3OTUgMTI3MS4xMyA4My4zMjk1QzEyNzQuODggODUuNTc5NSAxMjc3Ljc4IDg4LjczODYgMTI3OS44MyA5Mi44MDY4QzEyODEuODkgOTYuODc1IDEyODIuOTMgMTAxLjYxNCAxMjgyLjkzIDEwNy4wMjNDMTI4Mi45MyAxMTIuNDMyIDEyODEuODkgMTE3LjE1OSAxMjc5LjgzIDEyMS4yMDVDMTI3Ny43OCAxMjUuMjUgMTI3NC44OCAxMjguMzk4IDEyNzEuMTMgMTMwLjY0OEMxMjY3LjM4IDEzMi44OTggMTI2Mi45NSAxMzQuMDIzIDEyNTcuODQgMTM0LjAyM1pNMTI1Ny45MSAxMjQuMTM2QzEyNjAuNjggMTI0LjEzNiAxMjYzIDEyMy4zNzUgMTI2NC44NiAxMjEuODUyQzEyNjYuNzIgMTIwLjMwNyAxMjY4LjExIDExOC4yMzkgMTI2OS4wMiAxMTUuNjQ4QzEyNjkuOTUgMTEzLjA1NyAxMjcwLjQyIDExMC4xNyAxMjcwLjQyIDEwNi45ODlDMTI3MC40MiAxMDMuNzg0IDEyNjkuOTUgMTAwLjg4NiAxMjY5LjAyIDk4LjI5NTVDMTI2OC4xMSA5NS42ODE4IDEyNjYuNzIgOTMuNjAyMyAxMjY0Ljg2IDkyLjA1NjhDMTI2MyA5MC41MTE0IDEyNjAuNjggODkuNzM4NiAxMjU3LjkxIDg5LjczODZDMTI1NS4wNyA4OS43Mzg2IDEyNTIuNyA5MC41MTE0IDEyNTAuODIgOTIuMDU2OEMxMjQ4Ljk1IDkzLjYwMjMgMTI0Ny41NSA5NS42ODE4IDEyNDYuNjIgOTguMjk1NUMxMjQ1LjcxIDEwMC44ODYgMTI0NS4yNiAxMDMuNzg0IDEyNDUuMjYgMTA2Ljk4OUMxMjQ1LjI2IDExMC4xNyAxMjQ1LjcxIDExMy4wNTcgMTI0Ni42MiAxMTUuNjQ4QzEyNDcuNTUgMTE4LjIzOSAxMjQ4Ljk1IDEyMC4zMDcgMTI1MC44MiAxMjEuODUyQzEyNTIuNyAxMjMuMzc1IDEyNTUuMDcgMTI0LjEzNiAxMjU3LjkxIDEyNC4xMzZaTTEzMDUuNzQgNjMuMTgxOFYxMzNIMTI5My40VjYzLjE4MThIMTMwNS43NFoiLz4mI3hhOzwvc3ZnPg==;clipPath=inset(0% 87.33% 0% 0%);fontFamily=Lucida Console;" parent="1" vertex="1">
          <mxGeometry x="-267.5" y="-929.53" width="20" height="21.07" as="geometry" />
        </mxCell>
        <mxCell id="4CvtYM4crfJGOu6EVNtm-2" value="api.frankfurter" style="rounded=0;whiteSpace=wrap;direction=west;fontSize=14;fontFamily=Lucida Console;fillColor=#f5f5f5;fontColor=#333333;strokeColor=#666666;html=1;" parent="1" vertex="1">
          <mxGeometry x="-196" y="-1117.5" width="160" height="75" as="geometry" />
        </mxCell>
        <mxCell id="4CvtYM4crfJGOu6EVNtm-4" value="10000" style="text;align=left;verticalAlign=middle;resizable=0;points=[];autosize=1;strokeColor=none;fillColor=none;fontFamily=Lucida Console;fontStyle=1" parent="1" vertex="1">
          <mxGeometry x="-525" y="-1107.5" width="60" height="30" as="geometry" />
        </mxCell>
        <mxCell id="4CvtYM4crfJGOu6EVNtm-5" value="10010" style="text;align=left;verticalAlign=middle;resizable=0;points=[];autosize=1;strokeColor=none;fillColor=none;fontFamily=Lucida Console;fontStyle=1" parent="1" vertex="1">
          <mxGeometry x="-525" y="-940" width="50" height="30" as="geometry" />
        </mxCell>
        <mxCell id="4CvtYM4crfJGOu6EVNtm-12" value="&lt;span style=&quot;text-wrap-mode: wrap;&quot;&gt;10020&lt;/span&gt;" style="text;html=1;align=left;verticalAlign=middle;resizable=0;points=[];autosize=1;strokeColor=none;fillColor=none;fontStyle=1;fontFamily=Lucida Console;" parent="1" vertex="1">
          <mxGeometry x="-525" y="-767.5" width="60" height="30" as="geometry" />
        </mxCell>
        <mxCell id="4CvtYM4crfJGOu6EVNtm-13" value="&lt;span style=&quot;text-wrap-mode: wrap;&quot;&gt;10030&lt;/span&gt;" style="text;html=1;align=left;verticalAlign=middle;resizable=0;points=[];autosize=1;strokeColor=none;fillColor=none;fontStyle=1;fontFamily=Lucida Console;" parent="1" vertex="1">
          <mxGeometry x="-525" y="-588" width="60" height="30" as="geometry" />
        </mxCell>
        <mxCell id="4CvtYM4crfJGOu6EVNtm-14" value="&lt;span style=&quot;text-wrap-mode: wrap;&quot;&gt;10040&lt;/span&gt;" style="text;html=1;align=left;verticalAlign=middle;resizable=0;points=[];autosize=1;strokeColor=none;fillColor=none;fontStyle=1;fontFamily=Lucida Console;" parent="1" vertex="1">
          <mxGeometry x="-525" y="-405" width="60" height="30" as="geometry" />
        </mxCell>
      </root>
    </mxGraphModel>
  </diagram>
</mxfile>
